<svg width="120" height="120" viewBox="0 0 120 120" fill="none" xmlns="http://www.w3.org/2000/svg">
  <!-- Purple "9" letter icon -->
  <rect width="120" height="120" rx="24" fill="url(#iconBg)"/>
  
  <!-- Arabic letter "9" (Ain) -->
  <path d="M 60 30 C 70 30, 78 35, 78 42 C 78 48, 72 52, 65 52 L 65 60 C 72 60, 82 56, 82 46 C 82 35, 72 26, 60 26 C 48 26, 38 35, 38 46 C 38 62, 50 72, 60 76 C 65 78, 70 78, 72 78 C 74 78, 75 77, 75 75 C 75 73, 74 72, 72 72 C 70 72, 66 72, 62 70 C 54 66, 46 58, 46 46 C 46 38, 52 30, 60 30 Z" fill="white"/>
  
  <!-- Dot above -->
  <circle cx="60" cy="18" r="4" fill="white"/>
  
  <defs>
    <linearGradient id="iconBg" x1="0" y1="0" x2="120" y2="120">
      <stop offset="0%" stop-color="#8b5cf6"/>
      <stop offset="50%" stop-color="#7c3aed"/>
      <stop offset="100%" stop-color="#6d28d9"/>
    </linearGradient>
  </defs>
</svg>
